<svg id="ic_pr_02" xmlns="http://www.w3.org/2000/svg" width="100" height="100" viewBox="0 0 100 100">
  <path id="패스_142" data-name="패스 142" d="M166,14.672a1.95,1.95,0,0,0-1.947-1.953H142.316V1.953A1.95,1.95,0,0,0,140.368,0H67.947A1.95,1.95,0,0,0,66,1.953V86.328a1.95,1.95,0,0,0,1.947,1.953H89.684v9.766A1.95,1.95,0,0,0,91.632,100h72.421A1.95,1.95,0,0,0,166,98.047Zm-76.316,0v69.7H69.895V3.906h68.526v8.813H91.632A1.95,1.95,0,0,0,89.684,14.672Zm72.421,81.422H93.579V16.625h9.789V31.469a1.947,1.947,0,0,0,3.028,1.625l4.762-3.184,4.762,3.184a1.947,1.947,0,0,0,3.028-1.625V16.625h43.158Z" transform="translate(-66)"/>
  <path id="패스_143" data-name="패스 143" d="M188.738,206c-1.512,0-2.738.9-2.738,2s1.226,2,2.738,2h21.9c1.512,0,2.738-.9,2.738-2s-1.226-2-2.738-2Z" transform="translate(-148.571 -163.318)"/>
  <path id="패스_144" data-name="패스 144" d="M329.111,210h12.444c1.718,0,3.111-.9,3.111-2s-1.393-2-3.111-2H329.111c-1.718,0-3.111.9-3.111,2S327.393,210,329.111,210Z" transform="translate(-257.238 -163.318)"/>
  <path id="패스_145" data-name="패스 145" d="M233.5,266h-45a2.05,2.05,0,1,0,0,4h45a2.05,2.05,0,1,0,0-4Z" transform="translate(-148.571 -211.604)"/>
  <path id="패스_146" data-name="패스 146" d="M233.5,326h-45a2.05,2.05,0,1,0,0,4h45a2.05,2.05,0,1,0,0-4Z" transform="translate(-148.571 -259.889)"/>
  <path id="패스_147" data-name="패스 147" d="M309.828,386H288.648c-1.462,0-2.648.9-2.648,2s1.186,2,2.648,2h21.181c1.462,0,2.648-.9,2.648-2S311.29,386,309.828,386Z" transform="translate(-225.048 -308.175)"/>
  <path id="패스_148" data-name="패스 148" d="M199.969,386H188.794c-1.543,0-2.794.9-2.794,2s1.251,2,2.794,2h11.176c1.543,0,2.794-.9,2.794-2S201.512,386,199.969,386Z" transform="translate(-147.571 -308.175)"/>
</svg>
