<svg id="ic_pr_04" xmlns="http://www.w3.org/2000/svg" width="100" height="100" viewBox="0 0 100 100">
  <path id="패스_152" data-name="패스 152" d="M82.523,25.18H78.008V5.477A13.492,13.492,0,0,0,64.531-8H27.469A13.492,13.492,0,0,0,13.992,5.477v19.7H9.477A13.492,13.492,0,0,0-4,38.656V58.219A13.492,13.492,0,0,0,9.477,71.7h6.516V83.914A8.1,8.1,0,0,0,24.078,92H67.922a8.1,8.1,0,0,0,8.086-8.086V71.7h6.516A13.492,13.492,0,0,0,96,58.219V38.656A13.492,13.492,0,0,0,82.523,25.18ZM19.383,5.477a8.1,8.1,0,0,1,8.086-8.086H64.531a8.1,8.1,0,0,1,8.086,8.086v19.7H19.383ZM70.617,83.914a2.7,2.7,0,0,1-2.7,2.7H24.078a2.7,2.7,0,0,1-2.7-2.7V57.32H70.617Zm19.992-25.7A8.1,8.1,0,0,1,82.523,66.3H76.008V57.32h1.617a2.7,2.7,0,0,0,0-5.391H14.375a2.7,2.7,0,0,0,0,5.391h1.617V66.3H9.477a8.1,8.1,0,0,1-8.086-8.086V38.656A8.1,8.1,0,0,1,9.477,30.57H82.523a8.1,8.1,0,0,1,8.086,8.086Z" transform="translate(4 8)"/>
  <path id="패스_153" data-name="패스 153" d="M218.07,353H203.7a2.7,2.7,0,0,0,0,5.391H218.07a2.7,2.7,0,0,0,0-5.391Z" transform="translate(-160.883 -281.57)"/>
  <path id="패스_154" data-name="패스 154" d="M218.07,417H203.7a2.7,2.7,0,0,0,0,5.391H218.07a2.7,2.7,0,0,0,0-5.391Z" transform="translate(-160.883 -334.07)"/>
  <path id="패스_155" data-name="패스 155" d="M76.32,193H67.7a2.7,2.7,0,0,0,0,5.391H76.32a2.7,2.7,0,0,0,0-5.391Z" transform="translate(-49.32 -148.32)"/>
  <path id="패스_156" data-name="패스 156" d="M25.36,141.333a7.274,7.274,0,0,0-5.147,2.093l-3.852,3.409-.007-.007-2.066,1.82.014.014-3.674,3.259a4.612,4.612,0,1,1-3.265-7.86,4.658,4.658,0,0,1,3.327,1.4l1.547,1.37,2.059-1.82-1.725-1.527A7.325,7.325,0,1,0,12.51,153.9l3.852-3.415.007.007,2.059-1.827-.007-.007,3.674-3.252a4.61,4.61,0,1,1,3.265,7.853,4.679,4.679,0,0,1-3.327-1.4l-1.547-1.37-2.059,1.827,1.725,1.527a7.348,7.348,0,1,0,5.208-12.516Z" transform="translate(33.639 -128.995)"/>
</svg>
