<svg id="ic_mail" xmlns="http://www.w3.org/2000/svg" width="80" height="82" viewBox="0 0 80 82">
  <path id="패스_12" data-name="패스 12" d="M86,80.4V33.633a1.614,1.614,0,0,0-.576-1.23L73.2,22.205V8.008a1.6,1.6,0,0,0-1.6-1.6H54.259L47.025.371a1.6,1.6,0,0,0-2.049,0L37.741,6.406H20.4a1.6,1.6,0,0,0-1.6,1.6v14.2L6.576,32.4A1.616,1.616,0,0,0,6,33.633V80.4A1.606,1.606,0,0,0,7.6,82H84.4A1.607,1.607,0,0,0,86,80.4ZM64.027,63.1a1.6,1.6,0,0,0-1.92,2.562L79.6,78.8H12.4L29.893,65.664a1.6,1.6,0,0,0-1.92-2.562L9.2,77.195V36.836L45.04,63.742a1.6,1.6,0,0,0,1.92,0L82.8,36.836V77.195ZM22,9.609H70V42.441L46,60.459,22,42.441Z" transform="translate(-6 0)" fill="#111"/>
  <path id="합치기_1" data-name="합치기 1" d="M-3128-4109.081v-1.585l-1.121,1.122a1,1,0,0,1-1.414,0,1,1,0,0,1,0-1.415l1.12-1.12H-3131a1,1,0,0,1-1-1,1,1,0,0,1,1-1h1.586l-1.122-1.123a1,1,0,0,1,0-1.414,1,1,0,0,1,1.415,0l1.121,1.121v-1.585a1,1,0,0,1,1-1,1,1,0,0,1,1,1v1.585l1.121-1.121a1,1,0,0,1,1.415,0,1,1,0,0,1,0,1.414l-1.122,1.123H-3123a1,1,0,0,1,1,1,1,1,0,0,1-1,1h-1.585l1.12,1.12a1,1,0,0,1,0,1.415,1,1,0,0,1-1.414,0l-1.121-1.122v1.585a1,1,0,0,1-1,1A1,1,0,0,1-3128-4109.081Z" transform="translate(3155 4141.08)" fill="#111"/>
  <path id="합치기_2" data-name="합치기 2" d="M-3128-4109.081v-1.585l-1.121,1.122a1,1,0,0,1-1.414,0,1,1,0,0,1,0-1.415l1.12-1.12H-3131a1,1,0,0,1-1-1,1,1,0,0,1,1-1h1.586l-1.122-1.123a1,1,0,0,1,0-1.414,1,1,0,0,1,1.415,0l1.121,1.121v-1.585a1,1,0,0,1,1-1,1,1,0,0,1,1,1v1.585l1.121-1.121a1,1,0,0,1,1.415,0,1,1,0,0,1,0,1.414l-1.122,1.123H-3123a1,1,0,0,1,1,1,1,1,0,0,1-1,1h-1.585l1.12,1.12a1,1,0,0,1,0,1.415,1,1,0,0,1-1.414,0l-1.121-1.122v1.585a1,1,0,0,1-1,1A1,1,0,0,1-3128-4109.081Z" transform="translate(3167 4141.08)" fill="#111"/>
  <path id="합치기_3" data-name="합치기 3" d="M-3128-4109.081v-1.585l-1.121,1.122a1,1,0,0,1-1.414,0,1,1,0,0,1,0-1.415l1.12-1.12H-3131a1,1,0,0,1-1-1,1,1,0,0,1,1-1h1.586l-1.122-1.123a1,1,0,0,1,0-1.414,1,1,0,0,1,1.415,0l1.121,1.121v-1.585a1,1,0,0,1,1-1,1,1,0,0,1,1,1v1.585l1.121-1.121a1,1,0,0,1,1.415,0,1,1,0,0,1,0,1.414l-1.122,1.123H-3123a1,1,0,0,1,1,1,1,1,0,0,1-1,1h-1.585l1.12,1.12a1,1,0,0,1,0,1.415,1,1,0,0,1-1.414,0l-1.121-1.122v1.585a1,1,0,0,1-1,1A1,1,0,0,1-3128-4109.081Z" transform="translate(3179 4141.08)" fill="#111"/>
</svg>
