<svg id="ic_pwresetok" xmlns="http://www.w3.org/2000/svg" width="80" height="80" viewBox="0 0 80 80">
  <circle id="타원_2" data-name="타원 2" cx="3.5" cy="3.5" r="3.5" transform="translate(49.02 51.023)" fill="#111"/>
  <path id="패스_13" data-name="패스 13" d="M37.2,73.751H12.5A6.258,6.258,0,0,1,6.251,67.5V41.876a6.258,6.258,0,0,1,6.251-6.25H57.512a6.258,6.258,0,0,1,6.251,6.25v6.25a3.126,3.126,0,0,0,6.251,0v-6.25a12.515,12.515,0,0,0-12.5-12.5H53.755V18.355A18.578,18.578,0,0,0,35,0,18.578,18.578,0,0,0,16.248,18.355V29.376H12.5A12.515,12.515,0,0,0,0,41.876V67.5A12.515,12.515,0,0,0,12.5,80H37.2a3.125,3.125,0,1,0,0-6.25Zm-14.7-55.4A12.322,12.322,0,0,1,35,6.251a12.322,12.322,0,0,1,12.5,12.1V29.376H22.5V18.355Z" transform="translate(0 -0.001)" fill="#111"/>
  <path id="패스_14" data-name="패스 14" d="M300.579,322.582a3.12,3.12,0,0,0-4.354.721l-15.381,21.484a1.782,1.782,0,0,1-2.565.133l-9.94-9.7a3.12,3.12,0,0,0-4.359,4.466l9.957,9.717.028.027a8.045,8.045,0,0,0,5.535,2.212q.264,0,.529-.018a8.045,8.045,0,0,0,5.721-2.979q.054-.068.1-.138L301.3,326.936A3.12,3.12,0,0,0,300.579,322.582Z" transform="translate(-221.883 -271.643)" fill="#111"/>
  <ellipse id="타원_3" data-name="타원 3" cx="3" cy="3.5" rx="3" ry="3.5" transform="translate(38.001 51.023)" fill="#111"/>
  <ellipse id="타원_4" data-name="타원 4" cx="3" cy="3.5" rx="3" ry="3.5" transform="translate(14.965 51.023)" fill="#111"/>
  <ellipse id="타원_5" data-name="타원 5" cx="3" cy="3.5" rx="3" ry="3.5" transform="translate(25.982 51.023)" fill="#111"/>
</svg>
