<svg xmlns="http://www.w3.org/2000/svg" width="16" height="16" viewBox="0 0 16 16"><defs><style>.a{fill:#32bbff;}.b{fill:#2c9fd9;}.c{fill:#29cc5e;}.d{fill:#d93f21;}.e{fill:#ffd500;}.f{fill:#fa0;}</style></defs><path class="a" d="M61.686,6.471C59.245,5.247,55.327,3.283,49.25.233A1.611,1.611,0,0,0,47.962.083L58.388,9.426Z" transform="translate(-47.064 -0.012)"/><path class="a" d="M24.447,1.93a1.48,1.48,0,0,0-.2.072,1.107,1.107,0,0,0-.7.991v13.73a1.107,1.107,0,0,0,.7.991,1.5,1.5,0,0,0,.2.072l9.344-7.928Z" transform="translate(-23.549 -1.859)"/><path class="a" d="M58.382,255.98l-10.426,9.344a1.594,1.594,0,0,0,1.289-.151c5.893-2.957,9.767-4.9,12.236-6.133l.2-.1Z" transform="translate(-47.058 -249.396)"/><path class="b" d="M23.549,255.98v8.091a1.314,1.314,0,0,0,.7,1.168,1.359,1.359,0,0,0,.2.085l9.344-9.344Z" transform="translate(-23.549 -249.396)"/><path class="c" d="M43.914.222A1.317,1.317,0,0,0,42.561.156l9.4,9.4,3.1-3.1C52.871,5.236,49.36,3.271,43.914.222Z" transform="translate(-41.862 0)"/><path class="d" d="M51.962,252.126l-9.4,9.4a1.308,1.308,0,0,0,1.353-.066c5.281-2.957,8.753-4.9,10.966-6.133l.182-.1Z" transform="translate(-41.862 -245.684)"/><path class="e" d="M301.444,175.914a1.31,1.31,0,0,0-.675-1.152l-3.409-1.906-3.057,3.057,3.06,3.06c2.542-1.427,3.406-1.909,3.406-1.909A1.31,1.31,0,0,0,301.444,175.914Z" transform="translate(-285.444 -167.915)"/><path class="f" d="M300.769,257.132a1.31,1.31,0,0,0,.675-1.152H294.3l3.06,3.06C299.905,257.613,300.769,257.132,300.769,257.132Z" transform="translate(-285.444 -248.255)"/></svg>