<svg id="wing_menu_02" data-name="wing menu 02" xmlns="http://www.w3.org/2000/svg" width="80" height="140" viewBox="0 0 80 140">
  <g id="bg" fill="#fff" stroke="#ccad8a" stroke-width="1">
    <path d="M13.333,0H66.667A13.333,13.333,0,0,1,80,13.333V100a40,40,0,0,1-40,40h0A40,40,0,0,1,0,100V13.333A13.333,13.333,0,0,1,13.333,0Z" stroke="none"/>
    <path d="M13.445.5H66.555A12.945,12.945,0,0,1,79.5,13.445V100A39.5,39.5,0,0,1,40,139.5h0A39.5,39.5,0,0,1,.5,100V13.445A12.945,12.945,0,0,1,13.445.5Z" fill="none"/>
  </g>
  <text id="풀이수학_무료신청" data-name="풀이수학
무료신청" transform="translate(40 31)" fill="#ae573d" font-size="14" font-family="GmarketSansMedium, Gmarket Sans"><tspan x="-26.936" y="0">풀이수학</tspan><tspan x="-26.936" y="16">무료신청</tspan></text>
  <g id="btn_free" data-name="btn free" transform="translate(10.001 70)">
    <g id="ic_free" transform="translate(0 0)">
      <path id="패스_191" data-name="패스 191" d="M60,30A30,30,0,0,1,.348,34.587,30.341,30.341,0,0,1,0,30.066V30A30.014,30.014,0,0,1,42.859,2.888q1.089.518,2.13,1.12A29.971,29.971,0,0,1,60,30Zm0,0" transform="translate(0 0)" fill="#ffe662"/>
      <path id="패스_192" data-name="패스 192" d="M52.041,49.71l-.485-8.649-.517-9.218,0-.038a4.753,4.753,0,0,0-4.479-4.479l-1.569-.088-1.6-.089L37.3,26.806l-8.65-.486C27.643,26.262,18.485,30.495,12,36.98S0,53.3,0,53.3a30.341,30.341,0,0,0,.348,4.521A30.04,30.04,0,0,0,21.435,81.991L51.007,52.417a3.54,3.54,0,0,0,1.034-2.707Zm-8.355-8.1a4.9,4.9,0,1,1,0-6.933,4.9,4.9,0,0,1,0,6.933Zm0,0" transform="translate(0 -23.23)" fill="#ffb525"/>
      <path id="패스_193" data-name="패스 193" d="M59.733,35.188l-.519-9.256a4.754,4.754,0,0,0-4.479-4.479l-3.168-.178-6.088-.342-8.65-.487c-1.009-.057-12.921,5.811-20.709,13.6S2.968,52.632,2.968,52.632A30.021,30.021,0,0,0,28.034,77.7a152.438,152.438,0,0,1,14.72-17.721A116.2,116.2,0,0,1,59.185,46.544a3.549,3.549,0,0,0,1.034-2.707Zm-7.869.546a4.9,4.9,0,1,1,0-6.933,4.9,4.9,0,0,1,0,6.933Zm0,0" transform="translate(-2.62 -18.045)" fill="#f26065"/>
      <path id="패스_194" data-name="패스 194" d="M58.365,328.98c-.4-.4-.174-1.019.249-1.442l4.314-4.314c.411-.411,1.019-.149,1.417.249.46.46.647,1.069.274,1.442l-3.22,3.22,2.1,2.1,1.877-1.877a.943.943,0,0,1,1.343.174.922.922,0,0,1,.149,1.317l-1.877,1.877,3.208,3.208c.4.4.112,1.082-.373,1.566s-1.169.771-1.566.373Zm0,0" transform="translate(-67.528 -283.4) rotate(-3)" fill="#fff"/>
      <path id="패스_195" data-name="패스 195" d="M118.977,272.242a.818.818,0,0,1,.012-1.181l2.574-2.574c1.7-1.7,3.692-2.424,5.719-.4a3.464,3.464,0,0,1,1.019,4.028l4.265,1.231a.577.577,0,0,1,.286.162,1.785,1.785,0,0,1-.211,2.225.936.936,0,0,1-.982.261l-5.01-1.6-.821.82,3,3c.4.4.112,1.082-.373,1.566s-1.169.77-1.566.373Zm3.046-.833,2.312,2.312,1.231-1.23a1.636,1.636,0,0,0-2.312-2.313Zm0,0" transform="matrix(1, -0.017, 0.017, 1, -108.965, -235.763)" fill="#fff"/>
      <path id="패스_196" data-name="패스 196" d="M192.825,200.068l1.865-1.864a.943.943,0,0,1,1.343.174.922.922,0,0,1,.149,1.317l-1.865,1.865,2.113,2.113,3.332-3.332c.373-.373.982-.186,1.442.274.4.4.659,1.007.249,1.417l-4.426,4.426c-.423.423-1.044.646-1.442.249l-7.895-7.895c-.4-.4-.174-1.019.249-1.442l4.426-4.426c.411-.41,1.019-.149,1.417.249.46.46.647,1.069.274,1.442l-3.332,3.332Zm0,0" transform="translate(-165.512 -172.151)" fill="#fff"/>
      <path id="패스_197" data-name="패스 197" d="M256.373,136.521l1.865-1.864a.943.943,0,0,1,1.343.174.922.922,0,0,1,.149,1.317l-1.865,1.865,2.113,2.113,3.332-3.332c.373-.373.982-.187,1.442.273.4.4.659,1.007.249,1.417l-4.426,4.426c-.423.423-1.044.646-1.442.249l-7.895-7.895c-.4-.4-.174-1.019.248-1.442l4.426-4.426c.411-.41,1.019-.149,1.417.249.46.46.647,1.069.274,1.442l-3.332,3.332Zm0,0" transform="translate(-221.613 -115.051)" fill="#fff"/>
    </g>
  </g>
</svg>
