<svg id="ic_customer" xmlns="http://www.w3.org/2000/svg" width="60" height="68" viewBox="0 0 60 68">
  <path id="패스_201" data-name="패스 201" d="M61,0A29.976,29.976,0,0,0,31,29.883v16.2a6,6,0,0,0,6,5.977h2.344A6,6,0,0,0,51,50.07v-16.2a6,6,0,0,0-11.656-1.992H37a5.993,5.993,0,0,0-2,.343V29.883a26,26,0,0,1,52,0v2.335a5.992,5.992,0,0,0-2-.343H82.656A6,6,0,0,0,71,33.867v16.2a6,6,0,0,0,7.742,5.719A6.007,6.007,0,0,1,73,60.031H66.656a5.977,5.977,0,1,0,0,3.984H73a9.992,9.992,0,0,0,10-9.961V52.063h2a6,6,0,0,0,6-5.977v-16.2A29.976,29.976,0,0,0,61,0ZM43,33.867a2,2,0,0,1,4,0v16.2a2,2,0,0,1-4,0Zm-6,1.992h2V48.078H37a2,2,0,0,1-2-1.992V37.852A2,2,0,0,1,37,35.859ZM61,64.016a1.992,1.992,0,1,1,2-1.992A2,2,0,0,1,61,64.016ZM79,50.07a2,2,0,0,1-4,0v-16.2a2,2,0,0,1,4,0Zm8-3.984a2,2,0,0,1-2,1.992H83V35.859h2a2,2,0,0,1,2,1.992Z" transform="translate(-31)"/>
</svg>
