<svg id="ic_pr_03" xmlns="http://www.w3.org/2000/svg" width="100.004" height="100" viewBox="0 0 100.004 100">
  <path id="패스_149" data-name="패스 149" d="M45.068,88.461H8.171c-.811,0-3.6.1-3.472-2.47v-64.7c-.125-1.875,2.661-2.47,3.472-2.47H91.83c2.6.166,3.472,1.66,3.472,2.47v21.42c2.45.289,2.746,1.091,4.7,2.41V22.289a8.176,8.176,0,0,0-8.171-8.161H8.171A8.175,8.175,0,0,0,0,22.289v62.7a8.176,8.176,0,0,0,8.171,8.161H40.145v15.119H33.79c-2.774,0-4.645,1.159-4.645,3.429s1.871,2.429,4.645,2.429h14.1a15.025,15.025,0,0,1-2.826-8.746V88.461Z" transform="translate(0 -14.128)" fill="#020202"/>
  <path id="패스_150" data-name="패스 150" d="M260.336,206.04H247.383s-2.229.871-3.8-2c0-13.561.035-51.223.035-51.223-.035-2.764,2.792-3.768,3.766-3.768h33.3c2.895-.138,3.766,2.793,3.766,3.768v14.305c4.043,0,3.463.443,4.7,1.166V152.818a8.475,8.475,0,0,0-8.465-8.467h-33.3a8.475,8.475,0,0,0-8.465,8.467v49.77a8.475,8.475,0,0,0,8.465,8.467h14.464Z" transform="translate(-189.151 -111.054)" fill="#020202"/>
  <path id="패스_151" data-name="패스 151" d="M382.279,273.775H366.033a4.2,4.2,0,0,0-4.193,4.195v30.772a4.2,4.2,0,0,0,4.193,4.193h16.247a4.2,4.2,0,0,0,4.193-4.193V277.97A4.2,4.2,0,0,0,382.279,273.775ZM366.863,278.8h14.585v26.6H366.863Zm7.294,32.1a1.8,1.8,0,1,1,1.184-.474A1.753,1.753,0,0,1,374.157,310.9Z" transform="translate(-286.468 -213.519)" fill="#020202"/>
</svg>
