<svg id="ic_email_fail" xmlns="http://www.w3.org/2000/svg" width="80" height="80" viewBox="0 0 80 80">
  <path id="replace" d="M80,40A40,40,0,0,1,40,80h-.156A39.867,39.867,0,0,1,0,40h6.25A33.71,33.71,0,0,0,39.843,73.75H40A33.75,33.75,0,1,0,15.714,16.563h6.16v6.25H4.686V5.625h6.25v6.887A40,40,0,0,1,80,40Zm-48.666.887a12.187,12.187,0,1,1,17.958,0,18.765,18.765,0,0,1,9.771,16.456h-6.25a12.5,12.5,0,1,0-25,0h-6.25a18.765,18.765,0,0,1,9.771-16.456Zm8.979-2.294a5.937,5.937,0,1,0-5.937-5.937A5.944,5.944,0,0,0,40.312,38.594Zm0,0" transform="translate(0.001 0)" fill="#111"/>
</svg>
