<svg id="ic_intro_02" xmlns="http://www.w3.org/2000/svg" width="65" height="31" viewBox="0 0 65 31">
  <g id="그룹_32" data-name="그룹 32">
    <path id="패스_207" data-name="패스 207" d="M50.143,38.631c-9.222,0-15.324,7.4-20.708,13.937C24.834,58.15,20.491,63.42,15.2,63.42c-5.5,0-8.875-5.55-8.875-9.529a9.8,9.8,0,0,1,9.509-9.05A10.849,10.849,0,0,1,24.549,49.5a3.2,3.2,0,0,0,4.334,1.018,3.073,3.073,0,0,0,1.055-4.268,17.271,17.271,0,0,0-14.1-7.614C6.5,38.631,0,46.675,0,53.892c0,7.445,6.242,15.739,15.2,15.739,8.307,0,13.82-6.688,19.151-13.156,4.931-5.982,9.589-11.633,15.792-11.633,3.691,0,6.116,1.23,7.412,3.756a12.34,12.34,0,0,1,1.122,5.533,12.951,12.951,0,0,1-1.493,5.191,6.576,6.576,0,0,1-6.261,3.716,12.827,12.827,0,0,1-10.087-5.083,6.777,6.777,0,0,0-.82-.87,3.2,3.2,0,0,0-4.459.338,3.064,3.064,0,0,0,.207,4.255c.057.064.126.147.208.245a18.992,18.992,0,0,0,14.951,7.325C61.56,69.248,65,59.062,65,54.089A18.008,18.008,0,0,0,63.2,45.8C61.526,42.533,57.9,38.631,50.143,38.631Z" transform="translate(0 -38.631)" fill="#fff"/>
  </g>
</svg>
