<svg id="ic_intro_04" xmlns="http://www.w3.org/2000/svg" width="50" height="50" viewBox="0 0 50 50">
  <path id="패스_205" data-name="패스 205" d="M25,0A25,25,0,1,0,50,25,25.028,25.028,0,0,0,25,0Zm0,44.735A19.735,19.735,0,1,1,44.735,25,19.757,19.757,0,0,1,25,44.735Z" fill="#fff"/>
  <path id="패스_206" data-name="패스 206" d="M72.238,50.734H61.989V41.857a2.633,2.633,0,0,0-5.265,0v11.51A2.632,2.632,0,0,0,59.357,56H72.238a2.633,2.633,0,1,0,0-5.265Z" transform="translate(-36.814 -25.456)" fill="#fff"/>
</svg>
