<svg id="ic_pr_01" xmlns="http://www.w3.org/2000/svg" width="100" height="100" viewBox="0 0 100 100">
  <path id="Shape" d="M63.643,0H52.929a1.786,1.786,0,0,0-1.786,1.786V5.357H45.786a1.786,1.786,0,1,0,0,3.571h5.357V12.5a1.786,1.786,0,0,0,1.786,1.786H56.5v5.357a1.786,1.786,0,1,0,3.571,0V14.286h3.571A1.786,1.786,0,0,0,65.429,12.5V1.786A1.786,1.786,0,0,0,63.643,0Z" transform="translate(34.571)"/>
  <path id="Shape-2" data-name="Shape" d="M63.643,51.143H60.071V45.786a1.786,1.786,0,1,0-3.571,0v5.357H52.929a1.786,1.786,0,0,0-1.786,1.786V56.5H45.786a1.786,1.786,0,1,0,0,3.571h5.357v3.571a1.786,1.786,0,0,0,1.786,1.786H63.643a1.786,1.786,0,0,0,1.786-1.786V52.929A1.786,1.786,0,0,0,63.643,51.143Z" transform="translate(34.571 34.571)"/>
  <path id="Shape-3" data-name="Shape" d="M15.786,3a1.786,1.786,0,0,0,0,3.571h3.571a1.786,1.786,0,1,0,0-3.571Z" transform="translate(11 2.357)"/>
  <path id="Shape-4" data-name="Shape" d="M21.786,3a1.786,1.786,0,1,0,0,3.571h3.571a1.786,1.786,0,1,0,0-3.571Z" transform="translate(15.714 2.357)"/>
  <path id="Shape-5" data-name="Shape" d="M27.786,3a1.786,1.786,0,0,0,0,3.571h3.571a1.786,1.786,0,1,0,0-3.571Z" transform="translate(20.429 2.357)"/>
  <path id="Shape-6" data-name="Shape" d="M37.357,3H33.786a1.786,1.786,0,1,0,0,3.571h3.571a1.786,1.786,0,0,0,0-3.571Z" transform="translate(25.143 2.357)"/>
  <path id="Shape-7" data-name="Shape" d="M43.357,3H39.786a1.786,1.786,0,0,0,0,3.571h3.571a1.786,1.786,0,0,0,0-3.571Z" transform="translate(29.857 2.357)"/>
  <path id="Shape-8" data-name="Shape" d="M15.786,54.571h3.571a1.786,1.786,0,1,0,0-3.571H15.786a1.786,1.786,0,0,0,0,3.571Z" transform="translate(11 40.071)"/>
  <path id="Shape-9" data-name="Shape" d="M21.786,51a1.786,1.786,0,1,0,0,3.571h3.571a1.786,1.786,0,1,0,0-3.571Z" transform="translate(15.714 40.071)"/>
  <path id="Shape-10" data-name="Shape" d="M27.786,51a1.786,1.786,0,0,0,0,3.571h3.571a1.786,1.786,0,1,0,0-3.571Z" transform="translate(20.429 40.071)"/>
  <path id="Shape-11" data-name="Shape" d="M33.786,51a1.786,1.786,0,1,0,0,3.571h3.571a1.786,1.786,0,0,0,0-3.571Z" transform="translate(25.143 40.071)"/>
  <path id="Shape-12" data-name="Shape" d="M39.786,54.571h3.571a1.786,1.786,0,0,0,0-3.571H39.786a1.786,1.786,0,0,0,0,3.571Z" transform="translate(29.857 40.071)"/>
  <path id="Shape-13" data-name="Shape" d="M4.786,38A1.786,1.786,0,0,0,3,39.786v3.571a1.786,1.786,0,0,0,3.571,0V39.786A1.786,1.786,0,0,0,4.786,38Z" transform="translate(2.357 29.857)"/>
  <path id="Shape-14" data-name="Shape" d="M6.571,33.786a1.786,1.786,0,1,0-3.571,0v3.571a1.786,1.786,0,0,0,3.571,0Z" transform="translate(2.357 25.143)"/>
  <path id="Shape-15" data-name="Shape" d="M6.571,27.786a1.786,1.786,0,0,0-3.571,0v3.571a1.786,1.786,0,1,0,3.571,0Z" transform="translate(2.357 20.429)"/>
  <path id="Shape-16" data-name="Shape" d="M6.571,21.786a1.786,1.786,0,1,0-3.571,0v3.571a1.786,1.786,0,1,0,3.571,0Z" transform="translate(2.357 15.714)"/>
  <path id="Shape-17" data-name="Shape" d="M6.571,15.786a1.786,1.786,0,0,0-3.571,0v3.571a1.786,1.786,0,1,0,3.571,0Z" transform="translate(2.357 11)"/>
  <path id="Shape-18" data-name="Shape" d="M51,43.357a1.786,1.786,0,0,0,3.571,0V39.786a1.786,1.786,0,0,0-3.571,0Z" transform="translate(40.071 29.857)"/>
  <path id="Shape-19" data-name="Shape" d="M51,37.357a1.786,1.786,0,0,0,3.571,0V33.786a1.786,1.786,0,1,0-3.571,0Z" transform="translate(40.071 25.143)"/>
  <path id="Shape-20" data-name="Shape" d="M51,31.357a1.786,1.786,0,1,0,3.571,0V27.786a1.786,1.786,0,0,0-3.571,0Z" transform="translate(40.071 20.429)"/>
  <path id="Shape-21" data-name="Shape" d="M51,25.357a1.786,1.786,0,1,0,3.571,0V21.786a1.786,1.786,0,1,0-3.571,0Z" transform="translate(40.071 15.714)"/>
  <path id="Shape-22" data-name="Shape" d="M52.786,21.143a1.786,1.786,0,0,0,1.786-1.786V15.786a1.786,1.786,0,0,0-3.571,0v3.571A1.786,1.786,0,0,0,52.786,21.143Z" transform="translate(40.071 11)"/>
  <path id="Shape-23" data-name="Shape" d="M1.786,14.286H5.357v5.357a1.786,1.786,0,1,0,3.571,0V14.286H12.5A1.786,1.786,0,0,0,14.286,12.5V8.929h5.357a1.786,1.786,0,1,0,0-3.571H14.286V1.786A1.786,1.786,0,0,0,12.5,0H1.786A1.786,1.786,0,0,0,0,1.786V12.5A1.786,1.786,0,0,0,1.786,14.286Z"/>
  <path id="Shape-24" data-name="Shape" d="M1.786,65.429H12.5a1.786,1.786,0,0,0,1.786-1.786V60.071h5.357a1.786,1.786,0,1,0,0-3.571H14.286V52.929A1.786,1.786,0,0,0,12.5,51.143H8.929V45.786a1.786,1.786,0,1,0-3.571,0v5.357H1.786A1.786,1.786,0,0,0,0,52.929V63.643A1.786,1.786,0,0,0,1.786,65.429Z" transform="translate(0 34.571)"/>
  <path id="패스_138" data-name="패스 138" d="M21,3.5V0a10.131,10.131,0,0,0-9.973,8.325L9.04,19.25H4.375v3.5H8.4L6.53,33.05A6.633,6.633,0,0,1,0,38.5V42a10.131,10.131,0,0,0,9.973-8.325L11.96,22.75h3.79v-3.5H12.6L14.47,8.95A6.633,6.633,0,0,1,21,3.5Zm0,0" transform="translate(29 29)"/>
  <path id="패스_139" data-name="패스 139" d="M172.375,87.449l-1.4-1.05c-.121.162-2.975,4.053-2.975,11.55s2.854,11.388,2.975,11.55l2.8-2.1c-.022-.029-2.274-3.208-2.274-9.45s2.26-9.429,2.283-9.461Zm0,0" transform="translate(-120.625 -47.949)"/>
  <path id="패스_140" data-name="패스 140" d="M331.136,88.5c.023.029,2.275,3.208,2.275,9.45s-2.26,9.429-2.283,9.461l1.408,1.039,1.4,1.05c.123-.163,2.975-4.053,2.975-11.55s-2.854-11.388-2.975-11.55Zm0,0" transform="translate(-265.912 -47.948)"/>
  <path id="패스_141" data-name="패스 141" d="M234.063,142.586l-2.085,2.867-2.085-2.867-2.83,2.059,2.751,3.783-2.751,3.783,2.83,2.059,2.085-2.867,2.085,2.867,2.83-2.059-2.751-3.783,2.751-3.783Zm0,0" transform="translate(-173.228 -97.991)"/>
</svg>
