<svg id="ic_apply" xmlns="http://www.w3.org/2000/svg" width="44.997" height="67" viewBox="0 0 44.997 67">
  <path id="패스_202" data-name="패스 202" d="M160.845,40.319V34.17a1.726,1.726,0,1,0-3.452,0v6.149c-.142.05-.372.106-.507.168a4.7,4.7,0,0,0-6.764-2.773,5.254,5.254,0,0,0-6.383-2.441V27.968a5.238,5.238,0,1,0-10.476,0v9.276a5.291,5.291,0,0,0-4.349,3.589l-2.519,9.949a6.957,6.957,0,0,0-.248,3.676H123.9a1.737,1.737,0,0,1-1.726-1.745V7.234A1.737,1.737,0,0,1,123.9,5.489h31.766a1.737,1.737,0,0,1,1.726,1.745V34.169a1.726,1.726,0,1,0,3.452,0V7.234A5.212,5.212,0,0,0,155.667,2H123.9a5.212,5.212,0,0,0-5.178,5.234V52.713a5.212,5.212,0,0,0,5.178,5.234h3.969l5.392,5.555v3.754A1.735,1.735,0,0,0,134.987,69h27.006a1.735,1.735,0,0,0,1.726-1.745V45.318C163.72,43.009,162.887,41.041,160.845,40.319Zm-.577,25.192H136.713V62.916a1.757,1.757,0,0,0-.349-1.052l-6.213-6.653a3.568,3.568,0,0,1-.481-3.336l2.519-9.949a1.8,1.8,0,0,1,1.072-1.121v7.807a1.726,1.726,0,1,0,3.452,0V27.967a1.786,1.786,0,1,1,3.573,0V40.25a1.726,1.726,0,1,0,3.452,0,1.786,1.786,0,1,1,3.573,0V42.4a1.726,1.726,0,1,0,3.452,0c.09-2.393,2.938-2.391,3.027,0v2.914a1.726,1.726,0,1,0,3.452,0c.089-2.392,2.938-2.392,3.027,0Z" transform="translate(-118.723 -2)"/>
  <path id="패스_203" data-name="패스 203" d="M201.452,73.9a1.864,1.864,0,0,0,1.275-3.157,16.012,16.012,0,0,0-22.946,0,1.883,1.883,0,0,0,0,2.615,1.771,1.771,0,0,0,2.55,0,12.453,12.453,0,0,1,17.847,0A1.774,1.774,0,0,0,201.452,73.9Z" transform="translate(-171.253 -57.904)"/>
  <path id="패스_204" data-name="패스 204" d="M207.952,108.122a1.572,1.572,0,0,0,2.214,2.233,4.689,4.689,0,0,1,6.64,0,1.572,1.572,0,0,0,2.213-2.233A7.814,7.814,0,0,0,207.952,108.122Z" transform="translate(-193.486 -91.825)"/>
</svg>
