<svg id="ic_intro_01" xmlns="http://www.w3.org/2000/svg" width="64" height="53.382" viewBox="0 0 64 53.382">
  <path id="패스_208" data-name="패스 208" d="M62.749,53.2,32.624,42.575a1.874,1.874,0,0,0-1.248,0L1.251,53.2a1.875,1.875,0,0,0,0,3.535l30.125,10.71a1.874,1.874,0,0,0,1.256,0l30.125-10.71a1.875,1.875,0,0,0,0-3.535Z" transform="translate(0 -42.468)" fill="#fff"/>
  <path id="패스_209" data-name="패스 209" d="M436.489,214.089V197.734l-3.75,1.333v15.022a3.765,3.765,0,0,0,0,6.53v9.214a1.875,1.875,0,0,0,3.75,0v-9.214a3.765,3.765,0,0,0,0-6.53Z" transform="translate(-376.992 -178.326)" fill="#fff"/>
  <path id="패스_210" data-name="패스 210" d="M124.263,228.758a5.611,5.611,0,0,1-1.884-.325l-16.935-6.021v8.251c0,2.019,2.106,3.726,6.259,5.074a44.2,44.2,0,0,0,25.121,0c4.153-1.348,6.259-3.055,6.259-5.074v-8.251l-16.935,6.021A5.612,5.612,0,0,1,124.263,228.758Z" transform="translate(-92.264 -199.919)" fill="#fff"/>
</svg>
