<svg id="ic_intro_03" xmlns="http://www.w3.org/2000/svg" width="60" height="50" viewBox="0 0 60 50">
  <path id="패스_211" data-name="패스 211" d="M59.792,37.427a2.253,2.253,0,0,1-1.145,3.006L33.264,51.786a2.323,2.323,0,0,1-.955.2,2.382,2.382,0,0,1-.678-.1l-30-9.082A2.267,2.267,0,0,1,.1,39.97a2.311,2.311,0,0,1,2.885-1.5L32.152,47.3l24.585-11A2.312,2.312,0,0,1,59.792,37.427Zm-27.641.788L2.988,29.384A2.312,2.312,0,0,0,.1,30.887a2.265,2.265,0,0,0,1.528,2.838l30,9.082a2.382,2.382,0,0,0,.678.1,2.323,2.323,0,0,0,.955-.2L58.648,31.351a2.254,2.254,0,0,0,1.145-3.006,2.319,2.319,0,0,0-3.055-1.126ZM0,22.586a2.272,2.272,0,0,1,1.408-2.207L18.26,13.393c3.316-1.376,4.894-3.093,4.894-9.132a2.255,2.255,0,0,1,.884-1.787,2.337,2.337,0,0,1,1.975-.418L55.872,9.294a2.281,2.281,0,0,1,1.756,2.2v.345c0,6.716,0,11.151-8.356,14.618-5.6,2.321-15.876,7.1-15.978,7.145a2.324,2.324,0,0,1-.985.218,2.382,2.382,0,0,1-.678-.1l-30-9.082A2.28,2.28,0,0,1,0,22.586Zm9.05-.447,23.076,6.989c2.566-1.188,10.527-4.85,15.346-6.848,5.1-2.116,5.5-3.744,5.531-9L27.647,7.128c-.445,4.659-2.241,8.229-7.592,10.449Z" transform="translate(0 -1.99)" fill="#fff"/>
</svg>
