<svg id="ic_logo_modal" xmlns="http://www.w3.org/2000/svg" width="150" height="30" viewBox="0 0 150 30">
  <path id="패스_120" data-name="패스 120" d="M567.438,468.341c1.5.269,8.57,1.165,13.565-4.542l-.516-.788c-.208.156-.39.287-.534.393-7.5,5.25-12.711,1.8-13.143,1.5a9.928,9.928,0,0,1-4.479-7.392c-.056-.913-.312-8.966,7.927-11.176a7.04,7.04,0,0,1,5.127.615,13.829,13.829,0,0,1-4.219,3.882l-.337-2.653-5.261,7.683,8.71-2.382-2.233-1.293.055-.041a18.768,18.768,0,0,1,5.633-2.822,11.283,11.283,0,0,1,1.36,5.408l.01.336-12.808,3.4a5.077,5.077,0,0,0,.284,1.2h0c1.09,2.915,4.665,3.461,5.991,3.461a11.162,11.162,0,0,0,2.1-.29c.162-.042.324-.082.484-.135,2.487-.721,6.923-2.727,7.534-7.968h0a11.134,11.134,0,0,0-.56-4.906c-1.7-4.285-5.948-5.877-9.591-5.877a13.405,13.405,0,0,0-3.51.468c-7.351,1.975-11.788,9-10.1,15.98A10.544,10.544,0,0,0,567.438,468.341Z" transform="translate(-502.765 -442.648)" fill="#e15226"/>
  <path id="패스_121" data-name="패스 121" d="M937.8,490.591a4.835,4.835,0,0,1,1.607-3.711,7,7,0,0,1,4.884-1.485,15.224,15.224,0,0,1,3.5.475v-.9a2.512,2.512,0,0,0-.693-1.95,3.414,3.414,0,0,0-2.3-.627,9.425,9.425,0,0,0-3.027.571,3.074,3.074,0,0,1-1.039.2,1.746,1.746,0,0,1-1.07-.323,1.642,1.642,0,0,1-.79-1.549,2.006,2.006,0,0,1,1.387-1.963,11.511,11.511,0,0,1,4.63-.808q6.969,0,6.966,6.544v7.9a1.712,1.712,0,0,1-.756,1.514,11.394,11.394,0,0,1-6.65,1.775,6.929,6.929,0,0,1-4.947-1.61A5.355,5.355,0,0,1,937.8,490.591Zm4.1-.16a1.879,1.879,0,0,0,.758,1.6,3.417,3.417,0,0,0,2.079.564,5.474,5.474,0,0,0,3.058-.842v-2.9a10.413,10.413,0,0,0-3.154-.353C942.455,488.5,941.9,489.8,941.9,490.43Z" transform="translate(-830.7 -472.559)" fill="#4c4946"/>
  <path id="패스_122" data-name="패스 122" d="M778.51,478.587a6.814,6.814,0,0,0-4.432,1.317,6.815,6.815,0,0,0-4.432-1.317q-6.556,0-6.556,7.063V494a2.193,2.193,0,0,0,.615,1.579,2.022,2.022,0,0,0,1.528.648,1.966,1.966,0,0,0,1.451-.656,2.174,2.174,0,0,0,.629-1.554v-8.2c0-1.853.782-2.813,2.333-2.9,1.447.079,2.214.928,2.315,2.546,0,.061-.006.114-.006.178V494a2.193,2.193,0,0,0,.615,1.579,1.978,1.978,0,0,0,1.172.612,1.726,1.726,0,0,0,.318.035c.008,0,.014-.006.02-.006s.012.006.016.006a1.84,1.84,0,0,0,.322-.035,1.992,1.992,0,0,0,1.172-.612A2.195,2.195,0,0,0,776.2,494V485.65c0-.064-.006-.117-.006-.178.1-1.619.867-2.467,2.314-2.546,1.547.084,2.331,1.044,2.331,2.9v8.2a2.174,2.174,0,0,0,.63,1.554,1.958,1.958,0,0,0,1.449.656,2.022,2.022,0,0,0,1.528-.648,2.2,2.2,0,0,0,.615-1.579V485.65Q785.063,478.588,778.51,478.587Z" transform="translate(-679.621 -472.609)" fill="#4c4946"/>
  <path id="패스_123" data-name="패스 123" d="M1160.169,445.483a6.124,6.124,0,0,0-4.7-1.783,5.457,5.457,0,0,0-3.969,1.256V440.4a2.111,2.111,0,0,0-.613-1.529,2.111,2.111,0,0,0-3,.005,2.108,2.108,0,0,0-.613,1.538v18.362a2.106,2.106,0,0,0,.628,1.523,2.049,2.049,0,0,0,1.514.643,1.966,1.966,0,0,0,1.48-.627,2.142,2.142,0,0,0,.6-1.533v-7.826a3.058,3.058,0,0,1,6.115,0v7.761a2.247,2.247,0,0,0,.6,1.583,1.952,1.952,0,0,0,1.482.641,2.019,2.019,0,0,0,1.545-.646,2.271,2.271,0,0,0,.6-1.592v-8.1A7.209,7.209,0,0,0,1160.169,445.483Z" transform="translate(-1011.838 -437.723)" fill="#4c4946"/>
  <path id="패스_124" data-name="패스 124" d="M1064.908,468.424h-2.114v-.018c-1.549-.083-2.331-1.019-2.331-2.832v-5.26h4.462a2.089,2.089,0,0,0,1.516-.631,1.966,1.966,0,0,0,.643-1.451,2.036,2.036,0,0,0-.634-1.526,2.118,2.118,0,0,0-1.543-.616h-4.446v-2.149a2.091,2.091,0,0,0-.63-1.518,1.965,1.965,0,0,0-1.449-.639,2.052,2.052,0,0,0-1.528.627,2.133,2.133,0,0,0-.617,1.545v11.788q0,6.855,6.465,6.9v.006h2.222a2.088,2.088,0,0,0,1.516-.633,1.963,1.963,0,0,0,.643-1.448,2.038,2.038,0,0,0-.634-1.528A2.112,2.112,0,0,0,1064.908,468.424Z" transform="translate(-933.101 -449.428)" fill="#4c4946"/>
  <path id="패스_125" data-name="패스 125" d="M498.6,434.359a2.284,2.284,0,0,0-2.337,2.228v18.74a2.341,2.341,0,0,0,4.675,0v-18.74A2.285,2.285,0,0,0,498.6,434.359Z" transform="translate(-448.895 -434.359)" fill="#187f8a"/>
  <path id="패스_126" data-name="패스 126" d="M288.82,472.127a9.1,9.1,0,0,0-9.092,9.091,4.634,4.634,0,0,1-8.661,2.3,7.887,7.887,0,0,1-2.214,4.309,8.423,8.423,0,0,0,6.236,2.482,9.1,9.1,0,0,0,9.092-9.091h0a4.653,4.653,0,1,1,.681,2.41,8.562,8.562,0,0,1-2.311,4.168,8.653,8.653,0,0,0,6.269,2.513,9.091,9.091,0,1,0,0-18.183Z" transform="translate(-252.268 -466.843)" fill="#187f8a"/>
  <path id="패스_127" data-name="패스 127" d="M164.321,481.218a4.635,4.635,0,0,1,8.663-2.3,7.88,7.88,0,0,1,2.211-4.314,8.434,8.434,0,0,0-6.234-2.48,9.1,9.1,0,0,0-9.091,9.091,4.655,4.655,0,1,1-.684-2.411,8.591,8.591,0,0,1,2.313-4.167,8.655,8.655,0,0,0-6.268-2.513,9.1,9.1,0,0,0-9.092,9.091v13.174a2.226,2.226,0,1,0,4.451,0v-5.369a9.073,9.073,0,0,0,13.731-7.8Z" transform="translate(-146.138 -466.621)" fill="#187f8a"/>
</svg>
