<svg id="ic_logo_nav" xmlns="http://www.w3.org/2000/svg" width="120" height="24.001" viewBox="0 0 120 24.001">
  <path id="패스_120" data-name="패스 120" d="M565.664,463.468c1.2.215,6.855.932,10.851-3.634l-.413-.631c-.167.125-.312.23-.427.315-6,4.2-10.168,1.44-10.514,1.2a7.944,7.944,0,0,1-3.583-5.915c-.045-.731-.25-7.175,6.341-8.943a5.63,5.63,0,0,1,4.1.492,11.063,11.063,0,0,1-3.375,3.106l-.269-2.123-4.208,6.148,6.967-1.906-1.786-1.035.044-.033a15.013,15.013,0,0,1,4.506-2.258,9.029,9.029,0,0,1,1.088,4.327l.008.269-10.246,2.721a4.049,4.049,0,0,0,.227.96h0c.872,2.333,3.732,2.77,4.792,2.77a8.933,8.933,0,0,0,1.68-.232c.13-.034.259-.066.387-.108,1.99-.577,5.538-2.182,6.027-6.376h0a8.912,8.912,0,0,0-.448-3.926c-1.36-3.429-4.758-4.7-7.672-4.7a10.721,10.721,0,0,0-2.807.374c-5.881,1.581-9.431,7.2-8.08,12.787A8.436,8.436,0,0,0,565.664,463.468Z" transform="translate(-513.932 -442.908)" fill="#e15226"/>
  <path id="패스_121" data-name="패스 121" d="M937.8,488.179a3.87,3.87,0,0,1,1.286-2.97,5.6,5.6,0,0,1,3.907-1.188,12.185,12.185,0,0,1,2.8.38v-.72a2.011,2.011,0,0,0-.554-1.561,2.73,2.73,0,0,0-1.84-.5,7.537,7.537,0,0,0-2.422.457,2.457,2.457,0,0,1-.831.16,1.4,1.4,0,0,1-.856-.258,1.314,1.314,0,0,1-.632-1.24,1.605,1.605,0,0,1,1.11-1.571,9.2,9.2,0,0,1,3.7-.647q5.575,0,5.572,5.237v6.322a1.37,1.37,0,0,1-.6,1.212,9.111,9.111,0,0,1-5.32,1.421,5.542,5.542,0,0,1-3.957-1.288A4.286,4.286,0,0,1,937.8,488.179Zm3.28-.128a1.5,1.5,0,0,0,.606,1.28,2.733,2.733,0,0,0,1.663.451,4.376,4.376,0,0,0,2.446-.674v-2.321a8.322,8.322,0,0,0-2.523-.283c-1.749,0-2.193,1.04-2.193,1.545Z" transform="translate(-852.13 -473.75)" fill="#4c4946"/>
  <path id="패스_122" data-name="패스 122" d="M775.425,478.585a6.49,6.49,0,0,1-7.091,0q-5.244,0-5.244,5.652v6.682a1.755,1.755,0,0,0,.492,1.264,1.617,1.617,0,0,0,1.222.519,1.572,1.572,0,0,0,1.161-.525,1.741,1.741,0,0,0,.5-1.244v-6.562c0-1.483.626-2.251,1.866-2.321,1.157.063,1.771.743,1.852,2.038,0,.049,0,.091,0,.142v6.69a1.756,1.756,0,0,0,.492,1.264,1.582,1.582,0,0,0,.938.49,1.383,1.383,0,0,0,.254.028c.006,0,.011,0,.016,0s.01,0,.013,0a1.469,1.469,0,0,0,.258-.028,1.593,1.593,0,0,0,.937-.49,1.758,1.758,0,0,0,.488-1.264v-6.682c0-.051,0-.094,0-.142.08-1.3.693-1.974,1.851-2.038,1.237.067,1.865.836,1.865,2.321v6.562a1.74,1.74,0,0,0,.5,1.244,1.566,1.566,0,0,0,1.159.525,1.617,1.617,0,0,0,1.222-.519,1.761,1.761,0,0,0,.492-1.264v-6.69Q780.667,478.586,775.425,478.585Z" transform="translate(-696.323 -473.802)" fill="#4c4946"/>
  <path id="패스_123" data-name="패스 123" d="M1157.59,444.035a4.9,4.9,0,0,0-3.76-1.426,4.366,4.366,0,0,0-3.175,1v-3.645a1.691,1.691,0,1,0-3.38.011v14.688a1.685,1.685,0,0,0,.5,1.218,1.639,1.639,0,0,0,1.211.514,1.572,1.572,0,0,0,1.184-.5,1.712,1.712,0,0,0,.48-1.226v-6.26a2.446,2.446,0,1,1,4.892,0v6.208a1.8,1.8,0,0,0,.48,1.266,1.562,1.562,0,0,0,1.185.513,1.615,1.615,0,0,0,1.236-.517,1.817,1.817,0,0,0,.48-1.273v-6.48a5.768,5.768,0,0,0-1.335-4.1Z" transform="translate(-1038.938 -437.827)" fill="#4c4946"/>
  <path id="패스_124" data-name="패스 124" d="M1063.175,465.095h-1.691v-.014c-1.239-.066-1.865-.815-1.865-2.265v-4.208h3.57a1.672,1.672,0,0,0,1.213-.5,1.571,1.571,0,0,0,.514-1.161,1.628,1.628,0,0,0-.507-1.221,1.693,1.693,0,0,0-1.234-.493h-3.557v-1.719a1.671,1.671,0,0,0-.5-1.214,1.572,1.572,0,0,0-1.159-.511,1.642,1.642,0,0,0-1.222.5,1.706,1.706,0,0,0-.493,1.236v9.43q0,5.484,5.172,5.52v0h1.777a1.67,1.67,0,0,0,1.213-.506,1.573,1.573,0,0,0,.515-1.158,1.63,1.63,0,0,0-.508-1.222A1.689,1.689,0,0,0,1063.175,465.095Z" transform="translate(-957.741 -449.898)" fill="#4c4946"/>
  <path id="패스_125" data-name="패스 125" d="M498.132,434.359a1.827,1.827,0,0,0-1.869,1.782v14.991a1.873,1.873,0,0,0,3.74,0V436.141A1.828,1.828,0,0,0,498.132,434.359Z" transform="translate(-458.374 -434.358)" fill="#187f8a"/>
  <path id="패스_126" data-name="패스 126" d="M284.825,472.127a7.281,7.281,0,0,0-7.273,7.275,3.707,3.707,0,0,1-6.928,1.841,6.313,6.313,0,0,1-1.771,3.448,6.736,6.736,0,0,0,4.988,1.986,7.281,7.281,0,0,0,7.273-7.275h0a3.723,3.723,0,1,1,.545,1.929,6.853,6.853,0,0,1-1.849,3.336,6.92,6.92,0,0,0,5.015,2.011,7.276,7.276,0,0,0,0-14.551Z" transform="translate(-255.587 -467.899)" fill="#187f8a"/>
  <path id="패스_127" data-name="패스 127" d="M160.683,479.4a3.708,3.708,0,0,1,6.93-1.84,6.3,6.3,0,0,1,1.769-3.451,6.747,6.747,0,0,0-4.987-1.984,7.279,7.279,0,0,0-7.272,7.272,3.724,3.724,0,1,1-.547-1.929,6.873,6.873,0,0,1,1.85-3.333,6.923,6.923,0,0,0-5.014-2.01,7.279,7.279,0,0,0-7.273,7.272v10.538a1.78,1.78,0,1,0,3.561,0v-4.295a7.258,7.258,0,0,0,10.984-6.239Z" transform="translate(-146.139 -467.714)" fill="#187f8a"/>
</svg>
