<svg xmlns="http://www.w3.org/2000/svg" width="54" height="51.997" viewBox="0 0 54 51.997"><defs><style>.a{fill:#ed7d45;}.b{fill:#dd603e;}.c{fill:#fff;}.d{fill:#e5e5e5;}.e{fill:#281a10;}</style></defs><path class="a" d="M32.3,300.4a6.322,6.322,0,1,0,0-12.645H8.314l1.744,1.962a6.318,6.318,0,0,1,0,8.83L8.314,300.4Z" transform="translate(14.249 -249.604)"/><path class="b" d="M166.143,294.879a7.149,7.149,0,0,0-1.514-4.469l-1.514-1.853h4.543l1.6,1.853a7.365,7.365,0,0,1,0,8.83l-1.514,1.853H163.2l1.514-1.853A7.323,7.323,0,0,0,166.143,294.879Z" transform="translate(-140.605 -250.295)"/><path class="c" d="M67.143,64.774a6.322,6.322,0,1,0,0-12.645H93.414V21.28A6.377,6.377,0,0,0,87.2,14.957H57.114l1.853,1.853A6.174,6.174,0,0,1,60.82,21.28V58.451A6.327,6.327,0,0,0,67.143,64.774Z" transform="translate(-47.196 -13.976)"/><path class="d" d="M236.334,15.066l1.553,1.853a6.821,6.821,0,0,1,1.553,4.469V58.56a6.351,6.351,0,0,0,3.289,5.777c-2.65,1.308-5.756-.109-6.852-3.379a7.538,7.538,0,0,1-.457-2.507V21.279a7.035,7.035,0,0,0-1.553-4.469l-1.553-1.853Z" transform="translate(-222.285 -13.976)"/><path class="d" d="M306.2,26.776l2.655-1.736V22.751a6.268,6.268,0,1,0-12.536.109,6.294,6.294,0,0,0,4.905,6.1l1.308.109Z" transform="translate(-295.118 -15.339)"/><path class="b" d="M5.1.189,6.322,0V3.924H0Z" transform="translate(7.413 9.702)"/><path class="e" d="M7.4,7.757H40.032a7.413,7.413,0,0,1,7.4,7.413V45.038a7.38,7.38,0,0,1-.761,14.716H20.125a7.413,7.413,0,0,1-7.4-7.413V22.473H7.4A7.413,7.413,0,0,1,0,15.061,7.32,7.32,0,0,1,7.4,7.757ZM25.129,57.465H46.56a5.228,5.228,0,0,0,5.222-5.232A5.16,5.16,0,0,0,46.56,47H25.129A7.315,7.315,0,0,1,25.129,57.465Zm-10.335-42.4V52.232a5.228,5.228,0,0,0,5.222,5.232,5.16,5.16,0,0,0,5.222-5.232c0-2.943-1.408-3.975-3.565-5.232h0a1.09,1.09,0,0,1,0-2.18H45.145V15.061a5.279,5.279,0,0,0-5.113-5.232H12.619a7.54,7.54,0,0,1,2.176,5.232ZM9.642,20.293h2.977V17.734a14.046,14.046,0,0,1-1.383,1.4A14.17,14.17,0,0,1,9.642,20.293Zm-3.333-.109a8.7,8.7,0,0,0,3.833-2.068,10.6,10.6,0,0,0,2.477-2.947h0A5.07,5.07,0,0,0,7.4,10.046a5.07,5.07,0,0,0-5.113,5.232C2.393,18.222,6.309,20.184,6.309,20.184Z" transform="translate(0 -7.757)"/><path class="e" d="M126.119,89.137H110.2a1.09,1.09,0,1,1,0-2.18h15.915a1.09,1.09,0,1,1,0,2.18Z" transform="translate(-86.032 -76.165)"/><path class="e" d="M126.119,145.937H110.2a1.09,1.09,0,0,1,0-2.18h15.915a1.09,1.09,0,1,1,0,2.18Z" transform="translate(-86.032 -125.226)"/><path class="e" d="M126.119,203.537H110.2a1.09,1.09,0,0,1,0-2.18h15.915a1.09,1.09,0,1,1,0,2.18Z" transform="translate(-86.032 -174.977)"/></svg>