<svg id="ic_pr_07" xmlns="http://www.w3.org/2000/svg" width="100" height="100" viewBox="0 0 100 100">
  <path id="패스_222" data-name="패스 222" d="M3.947,30.921A3.948,3.948,0,0,0,0,34.866V61.183a3.947,3.947,0,0,0,7.894,0V34.866A3.944,3.944,0,0,0,3.947,30.921Z" transform="translate(0 34.868)"/>
  <path id="패스_223" data-name="패스 223" d="M9.36,18.553A3.947,3.947,0,0,0,5.413,22.5V75.13a3.947,3.947,0,1,0,7.894,0V22.5A3.947,3.947,0,0,0,9.36,18.553Z" transform="translate(6.104 20.922)"/>
  <path id="패스_224" data-name="패스 224" d="M14.771,24.736a3.95,3.95,0,0,0-3.947,3.947V68.157a3.947,3.947,0,0,0,7.894,0V28.685A3.947,3.947,0,0,0,14.771,24.736Z" transform="translate(12.206 27.894)"/>
  <path id="패스_225" data-name="패스 225" d="M20.182,12.369a3.946,3.946,0,0,0-3.945,3.947V82.1a3.946,3.946,0,1,0,7.891,0V16.316A3.947,3.947,0,0,0,20.182,12.369Z" transform="translate(18.31 13.948)"/>
  <path id="패스_226" data-name="패스 226" d="M25.6,0a3.948,3.948,0,0,0-3.947,3.947V96.053a3.947,3.947,0,0,0,7.894,0V3.947A3.95,3.95,0,0,0,25.6,0Z" transform="translate(24.413)"/>
  <path id="패스_227" data-name="패스 227" d="M41.825,24.736a3.949,3.949,0,0,0-3.945,3.947V68.157a3.945,3.945,0,0,0,7.889,0V28.685A3.941,3.941,0,0,0,41.825,24.736Z" transform="translate(42.716 27.894)"/>
  <path id="패스_228" data-name="패스 228" d="M47.236,12.369a3.946,3.946,0,0,0-3.945,3.947V82.1a3.946,3.946,0,1,0,7.891,0V16.318A3.947,3.947,0,0,0,47.236,12.369Z" transform="translate(48.818 13.948)"/>
  <path id="패스_229" data-name="패스 229" d="M31.006,18.553A3.945,3.945,0,0,0,27.061,22.5V75.13a3.945,3.945,0,1,0,7.889,0V22.5A3.942,3.942,0,0,0,31.006,18.553Z" transform="translate(30.516 20.922)"/>
  <path id="패스_230" data-name="패스 230" d="M36.418,37.1a3.945,3.945,0,0,0-3.945,3.945v13.16a3.945,3.945,0,0,0,7.889,0V41.052A3.941,3.941,0,0,0,36.418,37.1Z" transform="translate(36.618 41.842)"/>
</svg>
