<svg id="ic_pr_08" xmlns="http://www.w3.org/2000/svg" width="100" height="80" viewBox="0 0 100 80">
  <path id="패스_231" data-name="패스 231" d="M87.766,0H31.516a1.863,1.863,0,0,0-1.875,1.846V78.154A1.863,1.863,0,0,0,31.516,80h56.25a1.863,1.863,0,0,0,1.875-1.846V1.846A1.863,1.863,0,0,0,87.766,0ZM85.891,76.307h-52.5V17.828h52.5Z" transform="translate(-9.641)"/>
  <path id="패스_236" data-name="패스 236" d="M50.877,10H31.405a1.808,1.808,0,0,0-1.764,1.846V71.154A1.808,1.808,0,0,0,31.405,73H50.877a1.808,1.808,0,0,0,1.764-1.846V11.846A1.809,1.809,0,0,0,50.877,10ZM49.112,69.309H33.17V27.821H49.112Z" transform="translate(-29.641 -1)"/>
  <path id="패스_237" data-name="패스 237" d="M50.877,10H31.405a1.808,1.808,0,0,0-1.764,1.846V71.154A1.808,1.808,0,0,0,31.405,73H50.877a1.808,1.808,0,0,0,1.764-1.846V11.846A1.809,1.809,0,0,0,50.877,10ZM49.112,69.309H33.17V27.821H49.112Z" transform="translate(47.359 -1)"/>
  <path id="패스_232" data-name="패스 232" d="M85.567,139.789h37.038a.926.926,0,0,0,.926-.926v-6.3a.926.926,0,0,0-.926-.926H85.567a.926.926,0,0,0-.926.926v6.3A.926.926,0,0,0,85.567,139.789Z" transform="translate(-54.086 -107.262)"/>
  <path id="패스_233" data-name="패스 233" d="M85.567,247.086h16.852a.926.926,0,0,0,.926-.926V218.567a.926.926,0,0,0-.926-.926H85.567a.926.926,0,0,0-.926.926V246.16A.926.926,0,0,0,85.567,247.086Z" transform="translate(-54.086 -177.336)"/>
  <path id="패스_234" data-name="패스 234" d="M228.53,217.641H215.567a.926.926,0,0,0-.926.926v5.371a.926.926,0,0,0,.926.926H228.53a.926.926,0,0,0,.926-.926v-5.371A.926.926,0,0,0,228.53,217.641Z" transform="translate(-160.011 -177.336)"/>
  <path id="패스_238" data-name="패스 238" d="M225.718,217.641H215.379c-.408,0-.738.776-.738,1.733v10.052c0,.957.331,1.733.738,1.733h10.338c.408,0,.738-.776.738-1.733V219.374C226.456,218.417,226.126,217.641,225.718,217.641Z" transform="translate(-205.456 -168.041)"/>
  <path id="패스_239" data-name="패스 239" d="M225.718,217.641H215.379c-.408,0-.738.207-.738.463v2.685c0,.256.331.463.738.463h10.338c.408,0,.738-.207.738-.463V218.1C226.456,217.848,226.126,217.641,225.718,217.641Z" transform="translate(-205.456 -177.725)"/>
  <path id="패스_240" data-name="패스 240" d="M225.718,217.641H215.379c-.408,0-.738.207-.738.463v2.685c0,.256.331.463.738.463h10.338c.408,0,.738-.207.738-.463V218.1C226.456,217.848,226.126,217.641,225.718,217.641Z" transform="translate(-205.456 -185.252)"/>
  <path id="패스_245" data-name="패스 245" d="M227.3,217.641H215.485c-.466,0-.844.207-.844.463v2.685c0,.256.378.463.844.463H227.3c.466,0,.844-.207.844-.463V218.1C228.141,217.848,227.763,217.641,227.3,217.641Z" transform="translate(-135.641 -165.596)"/>
  <path id="패스_246" data-name="패스 246" d="M227.3,217.641H215.485c-.466,0-.844.207-.844.463v2.685c0,.256.378.463.844.463H227.3c.466,0,.844-.207.844-.463V218.1C228.141,217.848,227.763,217.641,227.3,217.641Z" transform="translate(-135.641 -157.467)"/>
  <path id="패스_241" data-name="패스 241" d="M219.328,217.641h-4.375c-.173,0-.312.3-.312.681v3.949c0,.376.14.681.313.681h4.375c.173,0,.313-.3.313-.681v-3.949C219.641,217.946,219.5,217.641,219.328,217.641Z" transform="translate(-135.641 -185.252)"/>
  <path id="패스_244" data-name="패스 244" d="M219.328,217.641h-4.375c-.173,0-.312.3-.312.681v3.949c0,.376.14.681.313.681h4.375c.173,0,.313-.3.313-.681v-3.949C219.641,217.946,219.5,217.641,219.328,217.641Z" transform="translate(-135.641 -175.424)"/>
  <path id="패스_242" data-name="패스 242" d="M219.328,217.641h-4.375c-.173,0-.312.3-.312.681v3.949c0,.376.14.681.313.681h4.375c.173,0,.313-.3.313-.681v-3.949C219.641,217.946,219.5,217.641,219.328,217.641Z" transform="translate(-127.141 -185.252)"/>
  <path id="패스_243" data-name="패스 243" d="M219.328,217.641h-4.375c-.173,0-.312.3-.312.681v3.949c0,.376.14.681.313.681h4.375c.173,0,.313-.3.313-.681v-3.949C219.641,217.946,219.5,217.641,219.328,217.641Z" transform="translate(-127.141 -175.424)"/>
  <path id="패스_235" data-name="패스 235" d="M228.53,282.324H215.567a.926.926,0,0,0-.926.926v5.371a.926.926,0,0,0,.926.926H228.53a.926.926,0,0,0,.926-.926V283.25A.926.926,0,0,0,228.53,282.324Z" transform="translate(-160.011 -230.04)"/>
</svg>
