<svg id="ic_pr_06" xmlns="http://www.w3.org/2000/svg" width="100" height="100" viewBox="0 0 100 100">
  <path id="XMLID_468_" d="M4.545,17.182h25.6C32.022,22.472,37.074,27.273,43,27.273s10.978-4.8,12.855-10.091h39.6c2.51,0,4.545-1.035,4.545-3.545s-2.035-3.545-4.545-3.545h-39.6C53.978,4.8,48.926,0,43,0S32.022,4.8,30.145,10.091H4.545C2.035,10.091,0,11.126,0,13.636S2.035,17.182,4.545,17.182ZM43,9.091a4.545,4.545,0,1,1-4.545,4.545A4.551,4.551,0,0,1,43,9.091Z"/>
  <path id="XMLID_472_" d="M95.455,130.091H4.545c-2.51,0-4.545,1.035-4.545,3.545s2.035,3.545,4.545,3.545H95.455c2.51,0,4.545-1.035,4.545-3.545S97.965,130.091,95.455,130.091Z" transform="translate(0 -90.636)"/>
  <path id="XMLID_475_" d="M95.455,250.091H41.764C39.887,244.8,34.835,240,28.909,240s-10.978,4.8-12.855,10.091H4.545c-2.51,0-4.545,1.035-4.545,3.545s2.035,3.545,4.545,3.545H16.055c1.876,5.29,6.929,10.091,12.855,10.091s10.978-4.8,12.855-10.091H95.455c2.51,0,4.545-1.035,4.545-3.545S97.965,250.091,95.455,250.091Zm-66.545,8.091a4.545,4.545,0,1,1,4.545-4.545A4.551,4.551,0,0,1,28.909,258.182Z" transform="translate(0 -181.273)"/>
  <g id="타원_23" data-name="타원 23" transform="translate(54 28)" fill="#fff" stroke="#000" stroke-width="4">
    <circle cx="14.5" cy="14.5" r="14.5" stroke="none"/>
    <circle cx="14.5" cy="14.5" r="12.5" fill="none"/>
  </g>
  <path id="패스_221" data-name="패스 221" d="M247.008,1513.617s-6.144,2.776-2.745,11.231,5.883,14.383,5.883,14.383.261,6.21,1.177,6.872,2.222,1.32,6.144,1.32h15.819a6.115,6.115,0,0,0,3.138-4.625c.261-3.17-.654-6.318,2.353-11.208,1.7-5.284,5.491-21.009-4.183-23.652-2.353-.795-4.968-4.625-9.543-2.907-2.222-1.454,0-2.774-7.06-3.305.131-1.849,5.491-4.625,5.752-11.1s-4.314-11.365-11.635-11.627c-5.752.923-11.112,4.492-10.981,11.627a9.582,9.582,0,0,0,5.883,9.116Z" transform="translate(-183.164 -1448)" fill="#fff"/>
  <g id="타원_20" data-name="타원 20" transform="translate(29)" fill="#fff" stroke="#000" stroke-width="4">
    <circle cx="14" cy="14" r="14" stroke="none"/>
    <circle cx="14" cy="14" r="12" fill="none"/>
  </g>
  <g id="타원_21" data-name="타원 21" transform="translate(15 59)" fill="#fff" stroke="#000" stroke-width="4">
    <circle cx="14" cy="14" r="14" stroke="none"/>
    <circle cx="14" cy="14" r="12" fill="none"/>
  </g>
  <path id="패스_247" data-name="패스 247" d="M97.085,38.67A10.5,10.5,0,0,0,92.7,31.331a9.98,9.98,0,0,0-4.494-1.6,8.225,8.225,0,0,0-6.755-3.409,9.984,9.984,0,0,0-1.825.171,8.24,8.24,0,0,0-5.6-2.831,13.158,13.158,0,1,0-15,.565l0,3.474.01,8.377a7.575,7.575,0,0,0-3.791,4.654c-.93,3.162-.189,7.236,2.267,12.452a60.673,60.673,0,0,0,4.484,7.805l.412,5.479a4.736,4.736,0,0,0,4.7,4.362l19.524-.024a4.73,4.73,0,0,0,4.67-4.1l.758-5.775C96.671,53.706,98.361,46.217,97.085,38.67ZM59.008,14.5l.007,5.94a10.179,10.179,0,1,1,14.1.091l-.007-6.048A6.939,6.939,0,0,0,70.836,9.21a7.32,7.32,0,0,0-9.844.274A6.914,6.914,0,0,0,59.008,14.5Zm30.4,45.045a1.746,1.746,0,0,0-.267.719l-.795,6.055a1.774,1.774,0,0,1-1.72,1.553l-19.518.066h0a1.773,1.773,0,0,1-1.732-1.648l-.437-5.832a1.77,1.77,0,0,0-.3-.864C62.852,57,52.877,41.846,60.955,38.468a1.73,1.73,0,0,0,1.059-1.6c-.005-4.124-.021-17.813-.027-22.371a4.073,4.073,0,1,1,8.146-.011l.012,10.5a1.732,1.732,0,0,0,2,1.713,7.163,7.163,0,0,1,1.112-.089,5.3,5.3,0,0,1,4.488,2.307,1.7,1.7,0,0,0,1.387.7,1.8,1.8,0,0,0,.457-.059,7.315,7.315,0,0,1,1.858-.251,5.3,5.3,0,0,1,4.671,2.652,1.506,1.506,0,0,0,1.219.7c1.76.064,5.846.835,6.806,6.51C95.037,44.427,94.627,51.484,89.411,59.547Z" transform="translate(2.503 29.166)"/>
</svg>
