<svg id="ic_pwlock" xmlns="http://www.w3.org/2000/svg" width="12" height="14" viewBox="0 0 12 14">
  <path id="padlock" d="M13.5,5.25H13V3.5A3.779,3.779,0,0,0,9,0,3.779,3.779,0,0,0,5,3.5V5.25H4.5A1.417,1.417,0,0,0,3,6.563v6.125A1.417,1.417,0,0,0,4.5,14h9A1.417,1.417,0,0,0,15,12.688V6.563A1.417,1.417,0,0,0,13.5,5.25ZM6.333,3.5A2.519,2.519,0,0,1,9,1.167,2.519,2.519,0,0,1,11.667,3.5V5.25H6.333ZM9.667,9.755v1.329a.673.673,0,0,1-1.333,0V9.755a1.147,1.147,0,0,1-.667-1A1.26,1.26,0,0,1,9,7.583,1.26,1.26,0,0,1,10.333,8.75,1.147,1.147,0,0,1,9.667,9.755Z" transform="translate(-3)" fill="#333"/>
</svg>
