<svg id="ic_pr_05" xmlns="http://www.w3.org/2000/svg" width="110" height="100" viewBox="0 0 110 100">
  <path id="패스_218" data-name="패스 218" d="M137.172,84.846,119.018,100H62V0h75.172ZM133,4.286H66.571V95.714h48.3V80.7H133Z" transform="translate(-62)"/>
  <path id="패스_214" data-name="패스 214" d="M40.574,76H37.849c0-15.988,0-63.974,0-76h2.724A6.971,6.971,0,0,1,47.5,7V8.61a30.227,30.227,0,0,1,4.719,1.978l1.133-1.144a6.883,6.883,0,0,1,9.8,0L66.5,12.816a7.044,7.044,0,0,1,0,9.9l-1.132,1.143a30.851,30.851,0,0,1,1.959,4.764h1.6a6.971,6.971,0,0,1,6.93,7v4.77a6.971,6.971,0,0,1-6.93,7h-1.6a30.857,30.857,0,0,1-1.959,4.764L66.5,53.289a7.044,7.044,0,0,1,0,9.9l-3.339,3.371a6.882,6.882,0,0,1-9.8,0l-1.132-1.143A30.256,30.256,0,0,1,47.5,67.39V69A6.971,6.971,0,0,1,40.574,76Zm0-4.453A2.534,2.534,0,0,0,43.093,69V65.716a2.223,2.223,0,0,1,1.654-2.156,25.859,25.859,0,0,0,6.738-2.824,2.189,2.189,0,0,1,2.682.342l2.307,2.329a2.5,2.5,0,0,0,3.561,0l3.341-3.373a2.56,2.56,0,0,0,0-3.6l-2.307-2.33a2.243,2.243,0,0,1-.339-2.708,26.382,26.382,0,0,0,2.8-6.8,2.209,2.209,0,0,1,2.135-1.67H68.92a2.534,2.534,0,0,0,2.519-2.543v-4.77a2.534,2.534,0,0,0-2.519-2.543H65.664a2.209,2.209,0,0,1-2.135-1.67,26.387,26.387,0,0,0-2.8-6.8,2.243,2.243,0,0,1,.339-2.708l2.307-2.329a2.56,2.56,0,0,0,0-3.6l-3.341-3.373a2.5,2.5,0,0,0-3.562,0l-2.307,2.33a2.189,2.189,0,0,1-2.682.342,25.86,25.86,0,0,0-6.738-2.824,2.223,2.223,0,0,1-1.654-2.156V7a2.534,2.534,0,0,0-2.519-2.543Z" transform="translate(34.151 0.087)"/>
  <path id="패스_215" data-name="패스 215" d="M161.245,177.889V144.6a16.645,16.645,0,0,1,0,33.289Zm0-28.807v24.325a12.162,12.162,0,0,0,0-24.325Z" transform="translate(-87.995 -122.995)"/>
  <path id="패스_216" data-name="패스 216" d="M223.613,73.646l-8.391-9.324a.933.933,0,0,0-.694-.31h-5.594a.932.932,0,0,0-.694,1.555l7.83,8.7-7.83,8.7a.933.933,0,0,0,.694,1.557h5.594a.945.945,0,0,0,.694-.308l8.391-9.324A.933.933,0,0,0,223.613,73.646Z" transform="translate(-169.853 -15.726)"/>
  <path id="패스_217" data-name="패스 217" d="M15.613,73.646,7.221,64.323a.933.933,0,0,0-.694-.31H.933A.932.932,0,0,0,.24,65.568l7.83,8.7-7.83,8.7a.933.933,0,0,0,.694,1.557H6.528a.945.945,0,0,0,.694-.308l8.391-9.324A.933.933,0,0,0,15.613,73.646Z" transform="translate(26.026 -15.726)"/>
  <path id="패스_219" data-name="패스 219" d="M-14.644,1.26H-11.8l-4.424-11.41h-2.646L-23.3,1.26h2.632l.8-2.212h4.424Zm-4.438-4.424,1.428-3.976,1.428,3.976Zm7.7-.63A4.968,4.968,0,0,0-6.16,1.54,4.968,4.968,0,0,0-.938-3.794V-10.15H-3.486v6.356c0,1.82-1.008,3.038-2.674,3.038S-8.834-1.974-8.834-3.794V-10.15h-2.548ZM10.262-10.15H.294V-7.9H4V1.26H6.552V-7.9h3.71Zm6.51,11.69a5.9,5.9,0,0,0,6.16-5.992,5.9,5.9,0,0,0-6.16-5.992,5.9,5.9,0,0,0-6.16,5.992A5.9,5.9,0,0,0,16.772,1.54Zm0-2.3a3.547,3.547,0,0,1-3.612-3.7,3.539,3.539,0,0,1,3.612-3.7,3.539,3.539,0,0,1,3.612,3.7A3.547,3.547,0,0,1,16.772-.756Z" transform="translate(38 34)"/>
</svg>
