<svg id="ic_sns_naver" xmlns="http://www.w3.org/2000/svg" width="24" height="20" viewBox="0 0 24 20">
  <path id="패스_248" data-name="패스 248" d="M23.506,3.13A3.343,3.343,0,0,0,21.39.612C19.512,0,12,0,12,0S4.488,0,2.609.589A3.418,3.418,0,0,0,.494,3.13,44.735,44.735,0,0,0,0,10a44.57,44.57,0,0,0,.494,6.87A3.344,3.344,0,0,0,2.61,19.388C4.507,20,12,20,12,20s7.512,0,9.39-.588a3.343,3.343,0,0,0,2.115-2.518A44.737,44.737,0,0,0,24,10.024a42.461,42.461,0,0,0-.494-6.894Zm0,0" fill="#00d447"/>
  <path id="패스_250" data-name="패스 250" d="M-4.334.81H-1.37v-3.5L2.024.72H5.666V-6.615H2.7v3.5L-.693-6.525H-4.334Z" transform="translate(11 13)" fill="#fff"/>
</svg>
