<svg id="ic_thumbs" xmlns="http://www.w3.org/2000/svg" width="19.999" height="20.001" viewBox="0 0 19.999 20.001">
  <g id="color" transform="translate(0.625 0.625)">
    <g id="그룹_13" data-name="그룹 13" transform="translate(0 5.834)">
      <path id="패스_22" data-name="패스 22" d="M9.667,26.667H7.583a.834.834,0,0,1-.833-.833V14.583a.834.834,0,0,1,.833-.833H9.667a.834.834,0,0,1,.833.833V25.834A.836.836,0,0,1,9.667,26.667Z" transform="translate(-6.75 -13.75)" fill="#2fdf84"/>
    </g>
    <g id="그룹_14" data-name="그룹 14" transform="translate(3.751)">
      <path id="패스_23" data-name="패스 23" d="M22.918,13.417H18.151a6.412,6.412,0,0,0,.833-3.333c0-2.5-1.25-3.333-2.083-3.333s-1.25.417-1.25,2.5c0,2.917-4.167,5-4.167,5l-.233.117v8.884l.233.167S14.4,25.5,20.651,25.5h1.333a3.328,3.328,0,0,0,3.283-2.767l.933-5.417a3.332,3.332,0,0,0-3.283-3.9Z" transform="translate(-11.251 -6.75)" fill="#f3f3f1"/>
    </g>
  </g>
  <g id="shadow" transform="translate(0.625 0.625)">
    <g id="그룹_15" data-name="그룹 15" transform="translate(0 5.834)">
      <path id="패스_24" data-name="패스 24" d="M8.625,25.834V14.583a.834.834,0,0,1,.833-.833H7.583a.834.834,0,0,0-.833.833V25.834a.834.834,0,0,0,.833.833H9.458A.834.834,0,0,1,8.625,25.834Z" transform="translate(-6.75 -13.75)" fill="#00b871"/>
    </g>
    <g id="그룹_16" data-name="그룹 16" transform="translate(3.751)">
      <path id="패스_25" data-name="패스 25" d="M13.359,23.417l-.233-.167V14.367l.233-.117s4.167-2.083,4.167-5a3.815,3.815,0,0,1,.38-2.118A1.646,1.646,0,0,0,16.9,6.75c-.833,0-1.25.417-1.25,2.5,0,2.917-4.167,5-4.167,5l-.233.117v8.884l.233.167S14.4,25.5,20.651,25.5h1.333c.035,0,.068-.008.1-.009C16.145,25.4,13.359,23.417,13.359,23.417Z" transform="translate(-11.251 -6.75)" fill="#d5dbe1"/>
    </g>
  </g>
  <g id="_x31_.5">
    <g id="그룹_21" data-name="그룹 21">
      <g id="그룹_18" data-name="그룹 18" transform="translate(0 5.834)">
        <g id="그룹_17" data-name="그룹 17">
          <path id="패스_26" data-name="패스 26" d="M9.542,27.167H7.458A1.46,1.46,0,0,1,6,25.709V14.458A1.46,1.46,0,0,1,7.458,13H9.542A1.46,1.46,0,0,1,11,14.458V25.709A1.46,1.46,0,0,1,9.542,27.167ZM7.458,14.25a.208.208,0,0,0-.208.208V25.709a.208.208,0,0,0,.208.208H9.542a.211.211,0,0,0,.208-.208V14.458a.208.208,0,0,0-.208-.208Z" transform="translate(-6 -13)"/>
        </g>
      </g>
      <g id="그룹_20" data-name="그룹 20" transform="translate(4.013)">
        <g id="그룹_19" data-name="그룹 19">
          <path id="패스_27" data-name="패스 27" d="M21.912,26H20.579c-6.377,0-9.4-2.11-9.53-2.2l-.233-.167.727-1.018.233.167c.026.018,2.867,1.967,8.8,1.967h1.333A2.7,2.7,0,0,0,24.58,22.5l.933-5.417a2.706,2.706,0,0,0-2.668-3.168H18.079a.625.625,0,0,1-.52-.972,5.918,5.918,0,0,0,.728-2.987c0-1.987-.872-2.708-1.458-2.708-.308,0-.625,0-.625,1.875,0,3.265-4.328,5.467-4.513,5.559l-.233.117L10.9,13.683l.233-.117c.038-.018,3.821-1.948,3.821-4.441C14.953,7.613,15.1,6,16.828,6c.937,0,2.708.828,2.708,3.959a7.794,7.794,0,0,1-.472,2.708h3.78a3.957,3.957,0,0,1,3.9,4.632l-.933,5.417A3.946,3.946,0,0,1,21.912,26Z" transform="translate(-10.815 -6)"/>
        </g>
      </g>
    </g>
  </g>
</svg>
